<?xml version="1.0" encoding="UTF-8" standalone="no"?>
<svg
   width="150"
   height="380"
   viewBox="0 0 150 380"
   version="1.1"
   id="svg1"
   sodipodi:docname="TheReelPeet.svg"
   inkscape:version="1.4.2 (ebf0e940, 2025-05-08)"
   xmlns:inkscape="http://www.inkscape.org/namespaces/inkscape"
   xmlns:sodipodi="http://sodipodi.sourceforge.net/DTD/sodipodi-0.dtd"
   xmlns="http://www.w3.org/2000/svg"
   xmlns:svg="http://www.w3.org/2000/svg">
  <sodipodi:namedview
     id="namedview1"
     pagecolor="#ffffff"
     bordercolor="#000000"
     borderopacity="0.25"
     inkscape:showpageshadow="2"
     inkscape:pageopacity="0.0"
     inkscape:pagecheckerboard="0"
     inkscape:deskcolor="#d1d1d1"
     inkscape:zoom="2.6552632"
     inkscape:cx="69.296332"
     inkscape:cy="202.05153"
     inkscape:window-width="1176"
     inkscape:window-height="1186"
     inkscape:window-x="926"
     inkscape:window-y="55"
     inkscape:window-maximized="0"
     inkscape:current-layer="svg1"
     showgrid="false" />
  <defs
     id="defs1">
    <!-- Panel gradient (slightly darker, more separation) -->
    <linearGradient
       id="bgGrad"
       x1="0"
       y1="0"
       x2="0"
       y2="380"
       gradientUnits="userSpaceOnUse">
      <stop
         offset="0%"
         stop-color="#d0d0d0"
         id="stop1" />
      <stop
         offset="100%"
         stop-color="#b8b8b8"
         id="stop2" />
    </linearGradient>
    <!-- Clip so hatch only shows inside the two lanes -->
    <clipPath
       id="laneClip">
      <rect
         x="14"
         y="12"
         width="56"
         height="356"
         rx="7"
         ry="7"
         id="rect2" />
      <rect
         x="80"
         y="12"
         width="56"
         height="356"
         rx="7"
         ry="7"
         id="rect3" />
    </clipPath>
  </defs>
  <!-- Main panel background -->
  <rect
     id="panel"
     x="0"
     y="0"
     width="150"
     height="380"
     fill="url(#bgGrad)" />
  <!-- Hatch overlay (Rack ignores clip-path, so treat as global) -->
  <g
     id="hatchOverlay"
     opacity="0.10"><!-- your existing hatch lines exactly as-is -->
  </g>
  <!-- Lane A (red tint) -->
<rect
  x="14"
  y="12"
  width="56"
  height="356"
  rx="7"
  ry="7"
  fill="#d94a4a"
  opacity="0.18"
  stroke="#000000"
  stroke-opacity="0.08"
  stroke-width="1"
  id="laneA" />

<!-- Lane B (blue tint) -->
<rect
  x="80"
  y="12"
  width="56"
  height="356"
  rx="7"
  ry="7"
  fill="#4a78d9"
  opacity="0.18"
  stroke="#000000"
  stroke-opacity="0.08"
  stroke-width="1"
  id="laneB" />>
  <path
     d="m 105.3041,293.67049 h -0.51562 v -1.89843 h -1.9349 v 1.89843 h -0.51562 v -3.8776 h 0.51562 v 1.52083 h 1.9349 v -1.52083 h 0.51562 z m 3.48177,-1.45312 q 0,0.71094 -0.36458,1.12239 -0.36459,0.41146 -0.97657,0.41146 -0.61718,0 -0.98177,-0.41146 -0.36197,-0.41145 -0.36197,-1.12239 0,-0.71094 0.36197,-1.1224 0.36459,-0.41406 0.98177,-0.41406 0.61198,0 0.97657,0.41406 0.36458,0.41146 0.36458,1.1224 z m -0.50521,0 q 0,-0.56511 -0.22135,-0.83854 -0.22136,-0.27604 -0.61459,-0.27604 -0.39843,0 -0.61979,0.27604 -0.21875,0.27343 -0.21875,0.83854 0,0.54687 0.22136,0.83073 0.22135,0.28125 0.61718,0.28125 0.39063,0 0.61198,-0.27865 0.22396,-0.28125 0.22396,-0.83333 z m 1.75781,1.45312 h -0.48958 v -4.05208 h 0.48958 z m 3.32813,0 h -0.48959 v -0.30468 q -0.21093,0.18229 -0.4401,0.28385 -0.22917,0.10156 -0.4974,0.10156 -0.52083,0 -0.82812,-0.40104 -0.30469,-0.40104 -0.30469,-1.11198 0,-0.36979 0.10417,-0.65885 0.10677,-0.28906 0.28646,-0.49219 0.17708,-0.19792 0.41145,-0.30208 0.23698,-0.10417 0.48959,-0.10417 0.22916,0 0.40625,0.0495 0.17708,0.0469 0.37239,0.14844 v -1.26042 h 0.48959 z m -0.48959,-0.71614 v -1.66927 q -0.19791,-0.0885 -0.35416,-0.1224 -0.15625,-0.0339 -0.34115,-0.0339 -0.41146,0 -0.64062,0.28646 -0.22917,0.28645 -0.22917,0.81249 0,0.51823 0.17708,0.78907 0.17709,0.26823 0.56771,0.26823 0.20833,0 0.42188,-0.0911 0.21354,-0.0937 0.39843,-0.23958 z"
     id="text16-6"
     style="font-size:5.33333px;-inkscape-font-specification:'sans-serif, Normal';letter-spacing:0px;fill:#280b0b"
     aria-label="Hold" />
  <!-- Center seam -->
  <rect
     x="74.5"
     y="0"
     width="1"
     height="380"
     fill="#000000"
     opacity="0.12"
     id="centerSeam" />
  <!-- ===== Your existing artwork below (UNCHANGED from what you pasted) ===== -->
  <text
     xml:space="preserve"
     style="text-align:start;writing-mode:lr-tb;direction:ltr;text-anchor:start;fill:#000000"
     x="89.211472"
     y="45.627239"
     id="text5">
    <tspan
   id="tspan5"
   x="89.211472"
   y="45.627239" />
  </text>
  <text
     xml:space="preserve"
     style="font-style:normal;font-variant:normal;font-weight:normal;font-stretch:normal;font-size:10.6667px;font-family:sans-serif;-inkscape-font-specification:'sans-serif, Normal';font-variant-ligatures:normal;font-variant-caps:normal;font-variant-numeric:normal;font-variant-east-asian:normal;text-align:start;writing-mode:lr-tb;direction:ltr;text-anchor:start;fill:#000000"
     x="37.661049"
     y="75.322098"
     id="text2">
    <tspan
   sodipodi:role="line"
   id="tspan2" />
  </text>
  <text
     xml:space="preserve"
     style="font-style:normal;font-variant:normal;font-weight:normal;font-stretch:normal;font-size:10.6667px;font-family:sans-serif;-inkscape-font-specification:'sans-serif, Normal';font-variant-ligatures:normal;font-variant-caps:normal;font-variant-numeric:normal;font-variant-east-asian:normal;text-align:start;writing-mode:lr-tb;direction:ltr;text-anchor:start;fill:#000000"
     x="41.427155"
     y="71.179382"
     id="text3">
    <tspan
   sodipodi:role="line"
   id="tspan3"
   x="41.427155"
   y="71.179382" />
  </text>
  <!-- THEREELPEET (black) -->
  <path
     d="m 31.73366,28.186202 h -2.770842 v 6.838563 h -1.031253 v -6.838563 h -2.770842 v -0.91667 h 6.572937 z m 9.32398,6.838563 h -1.031253 v -3.796887 h -3.869804 v 3.796887 H 35.12533 v -7.755233 h 1.031253 v 3.041677 h 3.869804 v -3.041677 h 1.031253 z m 9.542731,0 H 45.49098 v -7.755233 h 5.109391 v 0.91667 h -4.078137 v 2.125007 h 4.078137 v 0.916669 h -4.078137 v 2.880218 h 4.078137 z m 10.402109,0 h -1.338546 l -2.593758,-3.083343 h -1.45313 v 3.083343 h -1.031253 v -7.755233 h 2.171882 q 0.703127,0 1.171878,0.09375 0.468752,0.08854 0.843753,0.322917 0.421876,0.265626 0.656252,0.671877 0.239584,0.401043 0.239584,1.020837 0,0.838544 -0.421876,1.406254 -0.421877,0.562502 -1.161462,0.848961 z m -2.411466,-5.572934 q 0,-0.333335 -0.119792,-0.588544 -0.114584,-0.260417 -0.385418,-0.437501 -0.223959,-0.151042 -0.531252,-0.208334 -0.307293,-0.0625 -0.723961,-0.0625 h -1.213545 v 2.927092 h 1.04167 q 0.489585,0 0.854169,-0.08333 0.364585,-0.08854 0.619794,-0.322918 0.234376,-0.218751 0.343751,-0.500001 0.114584,-0.28646 0.114584,-0.723961 z m 10.870859,5.572934 h -5.109391 v -7.755233 h 5.109391 v 0.91667 h -4.078138 v 2.125007 h 4.078138 v 0.916669 h -4.078138 v 2.880218 h 4.078138 z m 9.094814,0 h -5.109391 v -7.755233 h 5.109391 v 0.91667 H 74.47855 v 2.125007 h 4.078137 v 0.916669 H 74.47855 v 2.880218 h 4.078137 z m 8.891689,0 h -4.906265 v -7.755233 h 1.031253 v 6.838564 h 3.875012 z m 8.454185,-5.411475 q 0,0.515626 -0.182292,0.958336 -0.177084,0.437501 -0.500002,0.760419 -0.401043,0.401043 -0.94792,0.604169 -0.546876,0.197917 -1.380212,0.197917 h -1.031254 v 2.890634 h -1.031253 v -7.755233 h 2.104173 q 0.697919,0 1.182296,0.119792 0.484376,0.114584 0.859378,0.364585 0.442709,0.296876 0.682293,0.739586 0.244793,0.442709 0.244793,1.119795 z m -1.07292,0.02604 q 0,-0.401042 -0.140626,-0.697918 -0.140625,-0.296876 -0.427084,-0.484377 -0.250001,-0.161459 -0.572919,-0.229167 -0.317709,-0.07292 -0.807294,-0.07292 h -1.020837 v 3.098968 h 0.869795 q 0.625002,0 1.015628,-0.109375 0.390626,-0.114584 0.635419,-0.359377 0.244792,-0.25 0.343751,-0.526043 0.104167,-0.276042 0.104167,-0.619794 z m 9.891689,5.385434 h -5.109391 v -7.755233 h 5.109391 v 0.91667 h -4.07814 v 2.125007 h 4.07814 v 0.916669 h -4.07814 v 2.880218 h 4.07814 z m 9.09481,0 h -5.10939 v -7.755233 h 5.10939 v 0.91667 H 109.738 v 2.125007 h 4.07814 v 0.916669 H 109.738 v 2.880218 h 4.07814 z m 9.51669,-6.838563 h -2.77084 v 6.838563 h -1.03125 v -6.838563 h -2.77084 v -0.91667 h 6.57293 z"
     id="text8"
     style="font-size:10.6667px;-inkscape-font-specification:'sans-serif, Normal';letter-spacing:2.35px"
     aria-label="THEREELPEET" />
  <!-- THEREELPEET (red shadow/offset) -->
  <path
     d="m 33.027844,29.246693 h -2.770842 v 6.838563 h -1.031253 v -6.838563 h -2.770843 v -0.91667 h 6.572938 z m 9.32398,6.838563 h -1.031253 v -3.796887 h -3.869804 v 3.796887 h -1.031253 v -7.755233 h 1.031253 V 31.3717 h 3.869804 v -3.041677 h 1.031253 z m 9.542731,0 h -5.109391 v -7.755233 h 5.109391 v 0.91667 H 47.816417 V 31.3717 h 4.078138 v 0.916669 h -4.078138 v 2.880218 h 4.078138 z m 10.402108,0 H 60.958117 L 58.364359,33.001913 H 56.91123 v 3.083343 h -1.031254 v -7.755233 h 2.171882 q 0.703127,0 1.171879,0.09375 0.468751,0.08854 0.843753,0.322917 0.421876,0.265626 0.656252,0.671878 0.239584,0.401042 0.239584,1.020836 0,0.838544 -0.421877,1.406255 -0.421876,0.562501 -1.161462,0.848961 z m -2.411466,-5.572934 q 0,-0.333334 -0.119792,-0.588544 -0.114583,-0.260417 -0.385418,-0.437501 -0.223959,-0.151042 -0.531251,-0.208334 -0.307293,-0.0625 -0.723961,-0.0625 H 56.91123 v 2.927092 h 1.04167 q 0.489584,0 0.854169,-0.08333 0.364584,-0.08854 0.619794,-0.322918 0.234375,-0.218751 0.343751,-0.500001 0.114583,-0.28646 0.114583,-0.723961 z m 10.87086,5.572934 h -5.109391 v -7.755233 h 5.109391 v 0.91667 H 66.677919 V 31.3717 h 4.078138 v 0.916669 h -4.078138 v 2.880218 h 4.078138 z m 9.094814,0 H 74.74148 v -7.755233 h 5.109391 v 0.91667 H 75.772733 V 31.3717 h 4.078138 v 0.916669 h -4.078138 v 2.880218 h 4.078138 z m 8.891689,0 h -4.906266 v -7.755233 h 1.031254 v 6.838564 h 3.875012 z m 8.454185,-5.411475 q 0,0.515626 -0.182293,0.958336 -0.177084,0.437502 -0.500001,0.760419 -0.401043,0.401043 -0.94792,0.604169 -0.546877,0.197917 -1.380213,0.197917 h -1.031253 v 2.890634 h -1.031253 v -7.755233 h 2.104173 q 0.697919,0 1.182296,0.119792 0.484376,0.114584 0.859377,0.364585 0.44271,0.296876 0.682294,0.739586 0.244793,0.442709 0.244793,1.119795 z m -1.072921,0.02604 q 0,-0.401043 -0.140625,-0.697919 -0.140625,-0.296876 -0.427085,-0.484377 -0.25,-0.161459 -0.572918,-0.229167 -0.317709,-0.07292 -0.807294,-0.07292 h -1.020837 v 3.098968 h 0.869795 q 0.625001,0 1.015628,-0.109375 0.390626,-0.114584 0.635418,-0.359376 0.244793,-0.250001 0.343751,-0.526044 0.104167,-0.276042 0.104167,-0.619793 z m 9.891686,5.385433 h -5.10939 v -7.755233 h 5.10939 v 0.91667 h -4.07813 v 2.125007 h 4.07813 v 0.916669 h -4.07813 v 2.880218 h 4.07813 z m 9.09481,0 h -5.10939 v -7.755233 h 5.10939 v 0.91667 h -4.07813 v 2.125007 h 4.07813 v 0.916669 h -4.07813 v 2.880218 h 4.07813 z m 9.5167,-6.838563 h -2.77084 v 6.838563 h -1.03126 v -6.838563 h -2.77084 v -0.91667 h 6.57294 z"
     id="text8-1"
     style="font-size:10.6667px;-inkscape-font-specification:'sans-serif, Normal';letter-spacing:2.35px;fill:#ff0000"
     aria-label="THEREELPEET" />
  <text
     xml:space="preserve"
     style="font-style:normal;font-variant:normal;font-weight:normal;font-stretch:normal;font-size:10.6667px;font-family:sans-serif;-inkscape-font-specification:'sans-serif, Normal';font-variant-ligatures:normal;font-variant-caps:normal;font-variant-numeric:normal;font-variant-east-asian:normal;text-align:start;letter-spacing:0px;writing-mode:lr-tb;direction:ltr;text-anchor:start;fill:#280b0b"
     x="85.113976"
     y="81.34787"
     id="text9"><tspan
       sodipodi:role="line"
       id="tspan8"
       x="85.113976"
       y="81.34787" /></text>
  <path
     d="m 37.809578,112.98315 h -1.003906 l -1.945312,-2.3125 h -1.089844 v 2.3125 h -0.773438 v -5.8164 h 1.628907 q 0.527343,0 0.878906,0.0703 0.351562,0.0664 0.632812,0.24218 0.316407,0.19922 0.492188,0.50391 0.179687,0.30078 0.179687,0.76562 0,0.62891 -0.316406,1.05469 -0.316406,0.42188 -0.871094,0.63672 z m -1.808593,-4.17969 q 0,-0.25 -0.08984,-0.4414 -0.08594,-0.19531 -0.289063,-0.32813 -0.167968,-0.11328 -0.398437,-0.15625 -0.230469,-0.0469 -0.542969,-0.0469 H 33.77052 v 2.19532 h 0.78125 q 0.367187,0 0.640625,-0.0625 0.273437,-0.0664 0.464844,-0.24219 0.175781,-0.16406 0.257812,-0.375 0.08594,-0.21485 0.08594,-0.54297 z m 6.148437,4.17969 h -0.734375 v -2.48437 q 0,-0.30078 -0.03516,-0.5625 -0.03516,-0.26563 -0.128906,-0.41407 -0.09766,-0.16406 -0.28125,-0.24218 -0.183594,-0.082 -0.476563,-0.082 -0.300781,0 -0.628906,0.14843 -0.328125,0.14844 -0.628906,0.37891 v 3.25782 h -0.734371 v -4.36329 h 0.734375 v 0.48438 q 0.34375,-0.28516 0.710937,-0.44532 0.367188,-0.16015 0.753906,-0.16015 0.707032,0 1.078125,0.42578 0.371094,0.42578 0.371094,1.22656 z m 4.953125,0 h -0.734375 v -0.45703 q -0.316406,0.27343 -0.660156,0.42578 -0.34375,0.15234 -0.746094,0.15234 -0.78125,0 -1.242187,-0.60156 -0.457032,-0.60156 -0.457032,-1.66797 0,-0.55468 0.15625,-0.98828 0.160157,-0.43359 0.429688,-0.73828 0.265625,-0.29687 0.617187,-0.45312 0.355469,-0.15625 0.734375,-0.15625 0.34375,0 0.609375,0.0742 0.265625,0.0703 0.558594,0.22265 v -1.89062 h 0.734375 z m -0.734375,-1.07422 v -2.5039 q -0.296875,-0.13282 -0.53125,-0.1836 -0.234375,-0.0508 -0.511719,-0.0508 -0.617187,0 -0.960937,0.42969 -0.34375,0.42969 -0.34375,1.21875 0,0.77735 0.265625,1.1836 0.265625,0.40234 0.851562,0.40234 0.3125,0 0.632813,-0.13672 0.320312,-0.14062 0.597656,-0.35938 z"
     id="text12"
     style="font-size:8px;-inkscape-font-specification:'sans-serif, Normal';letter-spacing:0px;fill:#280b0b"
     aria-label="Rnd" />
  <path
     d="m 105.41116,112.98315 h -1.00391 l -1.94531,-2.3125 h -1.08984 v 2.3125 h -0.77344 v -5.81641 h 1.62891 q 0.52734,0 0.8789,0.0703 0.35156,0.0664 0.63281,0.24219 0.31641,0.19922 0.49219,0.50391 0.17969,0.30078 0.17969,0.76562 0,0.62891 -0.31641,1.05469 -0.3164,0.42187 -0.87109,0.63672 z m -1.80859,-4.17969 q 0,-0.25 -0.0898,-0.4414 -0.0859,-0.19532 -0.28907,-0.32813 -0.16797,-0.11328 -0.39843,-0.15625 -0.23047,-0.0469 -0.54297,-0.0469 h -0.9102 v 2.19531 h 0.78125 q 0.36719,0 0.64063,-0.0625 0.27343,-0.0664 0.46484,-0.24218 0.17578,-0.16407 0.25781,-0.375 0.0859,-0.21485 0.0859,-0.54297 z m 6.14844,4.17969 h -0.73438 v -2.48438 q 0,-0.30078 -0.0352,-0.56249 -0.0352,-0.26563 -0.12891,-0.41407 -0.0977,-0.16406 -0.28125,-0.24218 -0.18359,-0.082 -0.47656,-0.082 -0.30078,0 -0.62891,0.14843 -0.32813,0.14844 -0.62891,0.37891 v 3.25782 h -0.73438 v -4.36329 h 0.73438 v 0.48438 q 0.34376,-0.28516 0.71094,-0.44532 0.36719,-0.16015 0.75391,-0.16015 0.70703,0 1.07813,0.42578 0.37109,0.42578 0.37109,1.22656 z m 4.95312,0 h -0.73437 v -0.45703 q -0.31641,0.27343 -0.66016,0.42578 -0.34375,0.15234 -0.74609,0.15234 -0.78125,0 -1.24219,-0.60156 -0.45703,-0.60156 -0.45703,-1.66797 0,-0.55469 0.15625,-0.98828 0.16016,-0.43359 0.42969,-0.73828 0.26562,-0.29687 0.61719,-0.45312 0.35546,-0.15625 0.73437,-0.15625 0.34375,0 0.60938,0.0742 0.26562,0.0703 0.55859,0.22265 v -1.89062 h 0.73437 z m -0.73437,-1.07422 v -2.5039 q -0.29688,-0.13282 -0.53125,-0.1836 -0.23438,-0.0508 -0.51172,-0.0508 -0.61719,0 -0.96094,0.42969 -0.34375,0.42969 -0.34375,1.21874 0,0.77735 0.26563,1.1836 0.26562,0.40234 0.85156,0.40234 0.3125,0 0.63281,-0.13672 0.32032,-0.14062 0.59766,-0.35937 z"
     id="text13"
     style="font-size:8px;-inkscape-font-specification:'sans-serif, Normal';letter-spacing:0px;fill:#280b0b"
     aria-label="Rnd" />
  <path
     d="m 37.793953,77.01685 h -1.003906 l -1.945313,-2.3125 h -1.089843 v 2.3125 h -0.773438 v -5.816406 h 1.628906 q 0.527344,0 0.878907,0.07031 0.351562,0.06641 0.632812,0.242188 0.316406,0.199218 0.492188,0.503906 0.179687,0.300781 0.179687,0.765625 0,0.628906 -0.316406,1.054687 -0.316406,0.421875 -0.871094,0.636719 z m -1.808594,-4.179688 q 0,-0.25 -0.08984,-0.441406 -0.08594,-0.195312 -0.289063,-0.328125 -0.167969,-0.113281 -0.398437,-0.15625 -0.230469,-0.04687 -0.542969,-0.04687 h -0.910156 v 2.195313 h 0.78125 q 0.367187,0 0.640625,-0.0625 0.273437,-0.06641 0.464843,-0.242188 0.175782,-0.164062 0.257813,-0.375 0.08594,-0.214844 0.08594,-0.542969 z m 6.039063,4.179688 h -0.734375 v -0.484375 q -0.371094,0.292969 -0.710938,0.449219 -0.339843,0.15625 -0.75,0.15625 -0.6875,0 -1.070312,-0.417969 Q 38.375984,76.2981 38.375984,75.4856 v -2.832031 h 0.734375 v 2.484375 q 0,0.332031 0.03125,0.570312 0.03125,0.234375 0.132813,0.402344 0.105469,0.171875 0.273437,0.25 0.167969,0.07813 0.488282,0.07813 0.285156,0 0.621093,-0.148438 0.339844,-0.148437 0.632813,-0.378906 v -3.257812 h 0.734375 z m 5.09375,0 h -0.734375 v -2.484375 q 0,-0.300781 -0.03516,-0.5625 -0.03516,-0.265625 -0.128907,-0.414063 -0.09766,-0.164062 -0.28125,-0.242187 -0.183593,-0.08203 -0.476562,-0.08203 -0.300781,0 -0.628906,0.148437 -0.328125,0.148438 -0.628907,0.378906 v 3.257813 H 43.46973 V 72.65357 h 0.734375 v 0.484375 q 0.34375,-0.285157 0.710938,-0.445313 0.367187,-0.160156 0.753906,-0.160156 0.707031,0 1.078125,0.425781 0.371094,0.425781 0.371094,1.226563 z"
     id="text14"
     style="font-size:8px;-inkscape-font-specification:'sans-serif, Normal';letter-spacing:0px;fill:#280b0b"
     aria-label="Run" />
  <path
     d="m 105.39553,77.01685 h -1.0039 l -1.94532,-2.3125 h -1.08984 v 2.3125 h -0.77344 v -5.816406 h 1.62891 q 0.52734,0 0.8789,0.07031 0.35157,0.06641 0.63282,0.242187 0.3164,0.199219 0.49218,0.503906 0.17969,0.300782 0.17969,0.765625 0,0.628907 -0.3164,1.054688 -0.31641,0.421875 -0.8711,0.636719 z m -1.80859,-4.179687 q 0,-0.25 -0.0898,-0.441406 -0.0859,-0.195313 -0.28906,-0.328125 -0.16797,-0.113282 -0.39844,-0.15625 -0.23047,-0.04687 -0.54297,-0.04687 h -0.91016 v 2.195312 h 0.78125 q 0.36719,0 0.64063,-0.0625 0.27344,-0.06641 0.46484,-0.242187 0.17578,-0.164063 0.25781,-0.375 0.0859,-0.214844 0.0859,-0.542969 z m 6.03907,4.179687 h -0.73438 v -0.484375 q -0.37109,0.292969 -0.71094,0.449219 -0.33984,0.15625 -0.75,0.15625 -0.6875,0 -1.07031,-0.417969 -0.38282,-0.421875 -0.38282,-1.234375 v -2.832031 h 0.73438 v 2.484375 q 0,0.332031 0.0312,0.570313 0.0312,0.234375 0.13282,0.402343 0.10546,0.171875 0.27343,0.25 0.16797,0.07813 0.48828,0.07813 0.28516,0 0.6211,-0.148437 0.33984,-0.148438 0.63281,-0.378906 v -3.257813 h 0.73438 z m 5.09375,0 h -0.73438 v -2.484375 q 0,-0.300781 -0.0352,-0.5625 -0.0351,-0.265625 -0.1289,-0.414062 -0.0977,-0.164063 -0.28125,-0.242188 -0.1836,-0.08203 -0.47656,-0.08203 -0.30079,0 -0.62891,0.148438 -0.32813,0.148437 -0.62891,0.378906 v 3.257812 h -0.73437 V 72.65357 h 0.73437 v 0.484375 q 0.34375,-0.285156 0.71094,-0.445312 0.36719,-0.160157 0.75391,-0.160157 0.70703,0 1.07812,0.425782 0.3711,0.425781 0.3711,1.226562 z"
     id="text15"
     style="font-size:8px;-inkscape-font-specification:'sans-serif, Normal';letter-spacing:0px;fill:#280b0b"
     aria-label="Run" />
  <path
     d="m 23.913104,327.96316 h -2.098958 v -0.39583 h 0.807292 v -2.59896 h -0.807292 v -0.35416 q 0.164063,0 0.351563,-0.026 0.1875,-0.0287 0.283854,-0.0807 0.119791,-0.0651 0.1875,-0.16407 0.07031,-0.10156 0.08073,-0.27083 h 0.403645 v 3.49479 h 0.791667 z m 3.565102,-2.90885 -1.177083,2.90885 h -0.492187 l -1.16927,-2.90885 h 0.531249 l 0.901042,2.3151 0.893228,-2.3151 z m 2.398436,-1.14323 -1.867187,4.84375 h -0.45052 l 1.859374,-4.84375 z m 3.593747,0.61979 q 0.236979,0.26042 0.361979,0.63802 0.127604,0.37761 0.127604,0.85677 0,0.47917 -0.130208,0.85938 -0.127604,0.3776 -0.359375,0.63021 -0.239583,0.26302 -0.567708,0.39583 -0.32552,0.13281 -0.744791,0.13281 -0.408854,0 -0.744791,-0.13541 -0.333333,-0.13542 -0.567708,-0.39323 -0.234375,-0.25782 -0.361979,-0.63282 -0.125,-0.37499 -0.125,-0.85677 0,-0.47395 0.125,-0.84895 0.125,-0.37761 0.364583,-0.64584 0.229166,-0.2552 0.567708,-0.39062 0.341146,-0.13542 0.742187,-0.13542 0.416666,0 0.747395,0.13802 0.333333,0.13542 0.565104,0.38802 z m -0.04687,1.49479 q 0,-0.7552 -0.338541,-1.16406 -0.338542,-0.41146 -0.924479,-0.41146 -0.591145,0 -0.929687,0.41146 -0.335937,0.40886 -0.335937,1.16406 0,0.76302 0.34375,1.16927 0.343749,0.40365 0.921874,0.40365 0.578125,0 0.91927,-0.40365 0.34375,-0.40625 0.34375,-1.16927 z"
     id="text1"
     style="font-size:5.33333px;-inkscape-font-specification:'sans-serif, Normal';letter-spacing:0px;fill:#280b0b"
     aria-label="1v/O" />
  <path
     d="m 51.208126,327.98011 q -0.317708,0.14583 -0.695312,0.25521 -0.375,0.10677 -0.726562,0.10677 -0.453125,0 -0.830729,-0.125 -0.377604,-0.125 -0.643229,-0.375 -0.268229,-0.2526 -0.414062,-0.63021 -0.145833,-0.38021 -0.145833,-0.88802 0,-0.92969 0.541666,-1.46614 0.54427,-0.53907 1.492187,-0.53907 0.330728,0 0.674478,0.0807 0.346354,0.0781 0.744791,0.26823 v 0.61198 h -0.04687 q -0.08073,-0.0625 -0.234375,-0.16406 -0.153646,-0.10156 -0.302083,-0.16927 -0.179688,-0.0807 -0.408854,-0.13281 -0.226563,-0.0547 -0.515625,-0.0547 -0.651041,0 -1.031249,0.41927 -0.377604,0.41667 -0.377604,1.13021 0,0.7526 0.395833,1.17187 0.395833,0.41667 1.078124,0.41667 0.25,0 0.497396,-0.0495 0.249999,-0.0495 0.437499,-0.12761 v -0.95052 h -1.039062 v -0.45312 h 1.549479 z m 3.122394,0.28646 h -0.486979 v -0.3099 q -0.0651,0.0443 -0.177084,0.125 -0.109374,0.0781 -0.213541,0.125 -0.122396,0.0599 -0.28125,0.099 -0.158854,0.0417 -0.372396,0.0417 -0.393228,0 -0.666666,-0.26042 -0.273437,-0.26041 -0.273437,-0.66406 0,-0.33073 0.140625,-0.53385 0.143229,-0.20573 0.40625,-0.32292 0.265624,-0.11719 0.63802,-0.15885 0.372396,-0.0417 0.799479,-0.0625 v -0.0755 q 0,-0.16666 -0.0599,-0.27604 -0.05729,-0.10937 -0.166667,-0.17187 -0.104166,-0.0599 -0.25,-0.0807 -0.145833,-0.0208 -0.304687,-0.0208 -0.192708,0 -0.429687,0.0521 -0.236979,0.0495 -0.489583,0.14583 h -0.02604 v -0.49739 q 0.143229,-0.0391 0.414062,-0.0859 0.270834,-0.0469 0.533854,-0.0469 0.307292,0 0.533854,0.0521 0.229167,0.0495 0.395833,0.17187 0.164063,0.11979 0.25,0.3099 0.08594,0.1901 0.08594,0.47135 z m -0.486979,-0.71615 v -0.80989 q -0.223959,0.013 -0.528646,0.0391 -0.302083,0.026 -0.479166,0.0755 -0.210938,0.0599 -0.341146,0.1875 -0.130208,0.125 -0.130208,0.34636 0,0.25 0.151041,0.3776 0.151042,0.125 0.460938,0.125 0.257812,0 0.471354,-0.099 0.213541,-0.10156 0.395833,-0.24219 z m 2.940102,0.69011 q -0.138021,0.0365 -0.302083,0.0599 -0.161458,0.0234 -0.289062,0.0234 -0.445313,0 -0.677083,-0.23958 -0.231771,-0.23959 -0.231771,-0.76823 v -1.54688 h -0.330729 v -0.41145 h 0.330729 v -0.83594 h 0.489583 v 0.83594 h 1.010416 v 0.41145 h -1.010416 v 1.32552 q 0,0.22917 0.01042,0.35938 0.01042,0.1276 0.07292,0.23958 0.05729,0.10417 0.15625,0.15365 0.101563,0.0469 0.307292,0.0469 0.119791,0 0.25,-0.0338 0.130208,-0.0365 0.187499,-0.0599 h 0.02604 z m 3.02604,-1.37761 h -2.143228 q 0,0.26823 0.08073,0.46875 0.08073,0.19792 0.221355,0.32552 0.135416,0.125 0.320312,0.1875 0.1875,0.0625 0.411458,0.0625 0.296875,0 0.596354,-0.11718 0.302083,-0.11979 0.429687,-0.23438 h 0.02604 v 0.53386 q -0.247396,0.10416 -0.505208,0.17447 -0.257813,0.0703 -0.541667,0.0703 -0.723958,0 -1.130207,-0.39063 -0.40625,-0.39323 -0.40625,-1.11458 0,-0.71354 0.38802,-1.13281 0.390625,-0.41927 1.026041,-0.41927 0.588542,0 0.90625,0.34375 0.320312,0.34375 0.320312,0.97656 z m -0.476562,-0.375 q -0.0026,-0.38541 -0.195312,-0.59635 -0.190104,-0.21094 -0.580729,-0.21094 -0.393229,0 -0.627604,0.23177 -0.231771,0.23177 -0.263021,0.57552 z"
     id="text4"
     style="font-size:5.33333px;-inkscape-font-specification:'sans-serif, Normal';letter-spacing:0px;fill:#280b0b"
     aria-label="Gate" />
  <path
     d="m 90.573166,328.33978 h -2.098957 v -0.39583 H 89.2815 v -2.59896 h -0.807291 v -0.35417 q 0.164062,0 0.351562,-0.026 0.1875,-0.0286 0.283854,-0.0807 0.119792,-0.0651 0.1875,-0.16406 0.07031,-0.10156 0.08073,-0.27083 h 0.403646 v 3.49479 h 0.791666 z m 3.565102,-2.90885 -1.177083,2.90885 h -0.492187 l -1.16927,-2.90885 h 0.53125 l 0.901041,2.3151 0.893229,-2.3151 z m 2.398436,-1.14323 -1.867186,4.84375 h -0.450521 l 1.859374,-4.84375 z m 3.593746,0.61979 q 0.23698,0.26042 0.36198,0.63802 0.1276,0.37761 0.1276,0.85677 0,0.47917 -0.1302,0.85938 -0.12761,0.3776 -0.35938,0.6302 -0.239581,0.26303 -0.567711,0.39584 -0.32552,0.13281 -0.74479,0.13281 -0.40885,0 -0.74479,-0.13542 -0.333331,-0.13541 -0.567706,-0.39323 -0.234375,-0.25781 -0.361979,-0.63281 -0.125,-0.375 -0.125,-0.85677 0,-0.47396 0.125,-0.84896 0.125,-0.3776 0.364583,-0.64583 0.229167,-0.25521 0.567712,-0.39062 0.34114,-0.13542 0.74218,-0.13542 0.41667,0 0.7474,0.13802 0.33333,0.13542 0.565101,0.38802 z m -0.0469,1.49479 q 0,-0.75521 -0.338541,-1.16406 -0.33855,-0.41146 -0.92448,-0.41146 -0.59115,0 -0.92969,0.41146 -0.335937,0.40885 -0.335937,1.16406 0,0.76302 0.343747,1.16927 0.34375,0.40365 0.92188,0.40365 0.57812,0 0.91927,-0.40365 0.343751,-0.40625 0.343751,-1.16927 z"
     id="text6"
     style="font-size:5.33333px;-inkscape-font-specification:'sans-serif, Normal';letter-spacing:0px;fill:#280b0b"
     aria-label="1v/O" />
  <path
     d="m 117.49157,328.35673 q -0.31771,0.14583 -0.69531,0.25521 -0.375,0.10677 -0.72656,0.10677 -0.45313,0 -0.83073,-0.125 -0.3776,-0.125 -0.64323,-0.375 -0.26823,-0.25261 -0.41406,-0.63021 -0.14583,-0.38021 -0.14583,-0.88802 0,-0.92969 0.54166,-1.46615 0.54427,-0.53906 1.49219,-0.53906 0.33073,0 0.67448,0.0807 0.34635,0.0781 0.74479,0.26823 v 0.61198 h -0.0469 q -0.0807,-0.0625 -0.23437,-0.16406 -0.15365,-0.10157 -0.30208,-0.16927 -0.17969,-0.0807 -0.40886,-0.13282 -0.22656,-0.0547 -0.51562,-0.0547 -0.65104,0 -1.03125,0.41927 -0.37761,0.41666 -0.37761,1.1302 0,0.75261 0.39584,1.17188 0.39583,0.41667 1.07812,0.41667 0.25,0 0.4974,-0.0495 0.25,-0.0495 0.4375,-0.12761 v -0.95052 h -1.03907 v -0.45312 h 1.54948 z m 3.1224,0.28646 h -0.48698 v -0.3099 q -0.0651,0.0443 -0.17709,0.125 -0.10937,0.0781 -0.21354,0.125 -0.12239,0.0599 -0.28125,0.099 -0.15885,0.0417 -0.37239,0.0417 -0.39323,0 -0.66667,-0.26042 -0.27344,-0.26042 -0.27344,-0.66406 0,-0.33073 0.14063,-0.53386 0.14323,-0.20573 0.40625,-0.32291 0.26562,-0.11719 0.63802,-0.15886 0.37239,-0.0417 0.79948,-0.0625 v -0.0755 q 0,-0.16666 -0.0599,-0.27604 -0.0573,-0.10937 -0.16666,-0.17187 -0.10417,-0.0599 -0.25,-0.0807 -0.14584,-0.0208 -0.30469,-0.0208 -0.19271,0 -0.42969,0.0521 -0.23698,0.0495 -0.48958,0.14583 h -0.026 v -0.4974 q 0.14323,-0.0391 0.41406,-0.0859 0.27083,-0.0469 0.53385,-0.0469 0.30729,0 0.53386,0.0521 0.22916,0.0495 0.39583,0.17188 0.16406,0.11979 0.25,0.3099 0.0859,0.1901 0.0859,0.47135 z m -0.48698,-0.71615 v -0.80989 q -0.22396,0.013 -0.52865,0.0391 -0.30208,0.026 -0.47916,0.0755 -0.21094,0.0599 -0.34115,0.1875 -0.13021,0.125 -0.13021,0.34635 0,0.25 0.15104,0.37761 0.15104,0.125 0.46094,0.125 0.25781,0 0.47135,-0.099 0.21355,-0.10156 0.39584,-0.24219 z m 2.9401,0.6901 q -0.13802,0.0365 -0.30208,0.0599 -0.16146,0.0234 -0.28907,0.0234 -0.44531,0 -0.67708,-0.23959 -0.23177,-0.23958 -0.23177,-0.76822 v -1.54688 h -0.33073 v -0.41146 h 0.33073 v -0.83593 h 0.48958 v 0.83593 h 1.01042 v 0.41146 h -1.01042 v 1.32552 q 0,0.22917 0.0104,0.35938 0.0104,0.1276 0.0729,0.23958 0.0573,0.10417 0.15625,0.15365 0.10156,0.0469 0.30729,0.0469 0.11979,0 0.25,-0.0338 0.13021,-0.0365 0.1875,-0.0599 h 0.026 z m 3.02604,-1.3776 h -2.14323 q 0,0.26823 0.0807,0.46875 0.0807,0.19792 0.22136,0.32552 0.13541,0.125 0.32031,0.1875 0.1875,0.0625 0.41146,0.0625 0.29687,0 0.59635,-0.11719 0.30208,-0.11979 0.42969,-0.23437 h 0.026 v 0.53385 q -0.2474,0.10417 -0.50521,0.17448 -0.25781,0.0703 -0.54167,0.0703 -0.72395,0 -1.1302,-0.39062 -0.40625,-0.39323 -0.40625,-1.11458 0,-0.71354 0.38802,-1.13281 0.39062,-0.41928 1.02604,-0.41928 0.58854,0 0.90625,0.34375 0.32031,0.34375 0.32031,0.97657 z m -0.47656,-0.375 q -0.003,-0.38541 -0.19531,-0.59635 -0.19011,-0.21094 -0.58073,-0.21094 -0.39323,0 -0.62761,0.23177 -0.23177,0.23177 -0.26302,0.57552 z"
     id="text7"
     style="font-size:5.33333px;-inkscape-font-specification:'sans-serif, Normal';letter-spacing:0px;fill:#280b0b"
     aria-label="Gate" />
  <path
     d="m 27.079016,362.5902 h -0.66927 l -1.296875,-1.54167 h -0.726562 v 1.54167 h -0.515624 v -3.87761 h 1.085936 q 0.351563,0 0.585938,0.0469 0.234374,0.0443 0.421874,0.16146 0.210938,0.13281 0.328125,0.33594 0.119792,0.20052 0.119792,0.51041 0,0.41927 -0.210938,0.70313 -0.210937,0.28125 -0.580728,0.42447 z m -1.205728,-2.78646 q 0,-0.16667 -0.0599,-0.29427 -0.05729,-0.13021 -0.192708,-0.21875 -0.11198,-0.0755 -0.265625,-0.10417 -0.153646,-0.0312 -0.361979,-0.0312 h -0.606771 v 1.46354 h 0.520833 q 0.244792,0 0.427083,-0.0417 0.182292,-0.0443 0.309896,-0.16146 0.117188,-0.10938 0.171875,-0.25 0.05729,-0.14323 0.05729,-0.36198 z m 4.098955,2.78646 H 29.48266 v -1.65625 q 0,-0.20052 -0.02344,-0.375 -0.02344,-0.17709 -0.08594,-0.27604 -0.0651,-0.10938 -0.1875,-0.16146 -0.122396,-0.0547 -0.317709,-0.0547 -0.20052,0 -0.41927,0.099 -0.21875,0.099 -0.419271,0.2526 v 2.17188 h -0.489583 v -2.90886 h 0.489583 v 0.32292 q 0.229167,-0.1901 0.473958,-0.29687 0.244792,-0.10678 0.502604,-0.10678 0.471354,0 0.71875,0.28386 0.247395,0.28385 0.247395,0.81771 z m 3.302082,0 h -0.489583 v -0.30469 q -0.210937,0.18229 -0.440104,0.28385 -0.229167,0.10157 -0.497396,0.10157 -0.520833,0 -0.828124,-0.40105 -0.304687,-0.40104 -0.304687,-1.11197 0,-0.3698 0.104166,-0.65886 0.106771,-0.28906 0.286458,-0.49219 0.177084,-0.19791 0.411458,-0.30208 0.23698,-0.10417 0.489584,-0.10417 0.229166,0 0.406249,0.0495 0.177084,0.0469 0.372396,0.14844 v -1.26041 h 0.489583 z m -0.489583,-0.71615 v -1.66927 q -0.197917,-0.0885 -0.354167,-0.12239 -0.156249,-0.0339 -0.341145,-0.0339 -0.411458,0 -0.640625,0.28646 -0.229166,0.28646 -0.229166,0.8125 0,0.51823 0.177083,0.78906 0.177083,0.26823 0.567708,0.26823 0.208333,0 0.421875,-0.0912 0.213541,-0.0937 0.398437,-0.23958 z"
     id="text10"
     style="font-size:5.33333px;-inkscape-font-specification:'sans-serif, Normal';letter-spacing:0px;fill:#280b0b"
     aria-label="Rnd" />
  <path
     d="m 53.06514,362.50298 h -0.66927 l -1.296875,-1.54167 h -0.726562 v 1.54167 h -0.515624 v -3.8776 h 1.085937 q 0.351562,0 0.585937,0.0469 0.234375,0.0443 0.421874,0.16146 0.210938,0.13281 0.328125,0.33594 0.119792,0.20052 0.119792,0.51041 0,0.41927 -0.210938,0.70313 -0.210937,0.28125 -0.580728,0.42448 z m -1.205728,-2.78646 q 0,-0.16667 -0.0599,-0.29427 -0.05729,-0.13021 -0.192708,-0.21875 -0.111979,-0.0755 -0.265625,-0.10417 -0.153646,-0.0312 -0.361979,-0.0312 h -0.606771 v 1.46354 h 0.520833 q 0.244792,0 0.427083,-0.0417 0.182292,-0.0443 0.309896,-0.16146 0.117188,-0.10938 0.171875,-0.25 0.05729,-0.14323 0.05729,-0.36198 z m 4.026039,2.78646 h -0.489583 v -0.32292 q -0.247396,0.19531 -0.473958,0.29948 -0.226563,0.10417 -0.5,0.10417 -0.458333,0 -0.713541,-0.27865 -0.255209,-0.28125 -0.255209,-0.82292 v -1.88802 h 0.489584 v 1.65625 q 0,0.22136 0.02083,0.38021 0.02083,0.15625 0.08854,0.26823 0.07031,0.11458 0.182292,0.16667 0.111979,0.0521 0.325521,0.0521 0.190104,0 0.414062,-0.099 0.226562,-0.099 0.421875,-0.2526 v -2.17188 h 0.489583 z m 3.395831,0 h -0.489583 v -1.65625 q 0,-0.20052 -0.02344,-0.375 -0.02344,-0.17708 -0.08594,-0.27604 -0.0651,-0.10938 -0.1875,-0.16146 -0.122396,-0.0547 -0.317708,-0.0547 -0.200521,0 -0.41927,0.099 -0.21875,0.099 -0.419271,0.2526 v 2.17188 h -0.489583 v -2.90886 h 0.489583 v 0.32292 q 0.229166,-0.1901 0.473958,-0.29687 0.244792,-0.10677 0.502604,-0.10677 0.471354,0 0.718749,0.28385 0.247396,0.28385 0.247396,0.81771 z"
     id="text11"
     style="font-size:5.33333px;-inkscape-font-specification:'sans-serif, Normal';letter-spacing:0px;fill:#280b0b"
     aria-label="Run" />
  <path
     d="m 93.2341,362.61 h -0.66927 l -1.296874,-1.54166 H 90.541394 V 362.61 h -0.515625 v -3.8776 h 1.085937 q 0.351562,0 0.585937,0.0469 0.234375,0.0443 0.421875,0.16145 0.210937,0.13282 0.328124,0.33594 0.119792,0.20052 0.119792,0.51042 0,0.41927 -0.210937,0.70312 -0.210938,0.28125 -0.580729,0.42448 z m -1.205728,-2.78645 q 0,-0.16667 -0.0599,-0.29428 -0.05729,-0.1302 -0.192708,-0.21874 -0.111979,-0.0755 -0.265625,-0.10417 -0.153646,-0.0312 -0.361979,-0.0312 h -0.60677 v 1.46354 h 0.520833 q 0.244791,0 0.427083,-0.0417 0.182291,-0.0443 0.309895,-0.16146 0.117188,-0.10937 0.171875,-0.25 0.05729,-0.14322 0.05729,-0.36197 z m 4.098956,2.78645 h -0.489583 v -1.65625 q 0,-0.20052 -0.02344,-0.375 -0.02344,-0.17708 -0.08594,-0.27604 -0.0651,-0.10937 -0.1875,-0.16146 -0.122396,-0.0547 -0.317708,-0.0547 -0.200521,0 -0.419271,0.099 -0.21875,0.099 -0.41927,0.25261 v 2.17187 h -0.489584 v -2.90885 h 0.489584 v 0.32292 q 0.229166,-0.19011 0.473958,-0.29688 0.244791,-0.10677 0.502603,-0.10677 0.471354,0 0.71875,0.28385 0.247396,0.28386 0.247396,0.81771 z m 3.302082,0 h -0.489584 v -0.30469 q -0.210937,0.1823 -0.440104,0.28386 -0.229166,0.10156 -0.497395,0.10156 -0.520833,0 -0.828125,-0.40104 -0.304687,-0.40104 -0.304687,-1.11198 0,-0.36979 0.104166,-0.65885 0.106771,-0.28906 0.286459,-0.49219 0.177083,-0.19792 0.411458,-0.30208 0.236979,-0.10417 0.489583,-0.10417 0.229166,0 0.40625,0.0495 0.177083,0.0469 0.372395,0.14844 v -1.26042 h 0.489584 z m -0.489584,-0.71614 v -1.66927 q -0.197916,-0.0885 -0.354166,-0.1224 -0.15625,-0.0339 -0.341146,-0.0339 -0.411458,0 -0.640625,0.28646 -0.229166,0.28645 -0.229166,0.81249 0,0.51823 0.177083,0.78907 0.177083,0.26823 0.567708,0.26823 0.208333,0 0.421875,-0.0911 0.213541,-0.0937 0.398437,-0.23958 z"
     id="text10-8"
     style="font-size:5.33333px;-inkscape-font-specification:'sans-serif, Normal';letter-spacing:0px;fill:#280b0b"
     aria-label="Rnd" />
  <path
     d="m 119.22022,362.52278 h -0.66927 l -1.29687,-1.54166 h -0.72656 v 1.54166 h -0.51563 v -3.8776 h 1.08594 q 0.35156,0 0.58593,0.0469 0.23438,0.0443 0.42188,0.16145 0.21094,0.13282 0.32812,0.33594 0.1198,0.20052 0.1198,0.51042 0,0.41927 -0.21094,0.70312 -0.21094,0.28125 -0.58073,0.42448 z m -1.20573,-2.78645 q 0,-0.16667 -0.0599,-0.29427 -0.0573,-0.13021 -0.19271,-0.21875 -0.11198,-0.0755 -0.26562,-0.10417 -0.15365,-0.0312 -0.36198,-0.0312 h -0.60677 v 1.46354 h 0.52083 q 0.24479,0 0.42708,-0.0417 0.18229,-0.0443 0.3099,-0.16145 0.11718,-0.10938 0.17187,-0.25 0.0573,-0.14323 0.0573,-0.36198 z m 4.02604,2.78645 h -0.48958 v -0.32291 q -0.2474,0.19531 -0.47396,0.29948 -0.22656,0.10416 -0.5,0.10416 -0.45833,0 -0.71354,-0.27864 -0.25521,-0.28125 -0.25521,-0.82292 v -1.88802 h 0.48959 v 1.65625 q 0,0.22135 0.0208,0.38021 0.0208,0.15625 0.0885,0.26823 0.0703,0.11458 0.18229,0.16666 0.11198,0.0521 0.32552,0.0521 0.19011,0 0.41407,-0.099 0.22656,-0.099 0.42187,-0.25261 v -2.17187 h 0.48958 z m 3.39583,0 h -0.48958 v -1.65625 q 0,-0.20052 -0.0234,-0.375 -0.0234,-0.17708 -0.0859,-0.27604 -0.0651,-0.10937 -0.1875,-0.16146 -0.1224,-0.0547 -0.31771,-0.0547 -0.20052,0 -0.41927,0.099 -0.21875,0.099 -0.41927,0.2526 v 2.17187 h -0.48959 v -2.90885 h 0.48959 v 0.32292 q 0.22916,-0.19011 0.47396,-0.29688 0.24479,-0.10677 0.5026,-0.10677 0.47135,0 0.71875,0.28386 0.24739,0.28385 0.24739,0.8177 z"
     id="text11-5"
     style="font-size:5.33333px;-inkscape-font-specification:'sans-serif, Normal';letter-spacing:0px;fill:#280b0b"
     aria-label="Run" />
  <path
     d="m 38.180264,293.67049 h -0.515625 v -1.89843 h -1.934894 v 1.89843 H 35.21412 v -3.8776 h 0.515625 v 1.52083 h 1.934894 v -1.52083 h 0.515625 z m 3.481769,-1.45312 q 0,0.71094 -0.364583,1.12239 -0.364583,0.41146 -0.976562,0.41146 -0.617187,0 -0.98177,-0.41146 -0.361979,-0.41145 -0.361979,-1.12239 0,-0.71094 0.361979,-1.1224 0.364583,-0.41406 0.98177,-0.41406 0.611979,0 0.976562,0.41406 0.364583,0.41146 0.364583,1.1224 z m -0.505208,0 q 0,-0.56511 -0.221354,-0.83854 -0.221354,-0.27604 -0.614583,-0.27604 -0.398437,0 -0.619791,0.27604 -0.21875,0.27343 -0.21875,0.83854 0,0.54687 0.221354,0.83073 0.221354,0.28125 0.617187,0.28125 0.390625,0 0.611979,-0.27865 0.223958,-0.28125 0.223958,-0.83333 z m 1.757811,1.45312 h -0.489583 v -4.05208 h 0.489583 z m 3.328123,0 h -0.489583 v -0.30468 q -0.210937,0.18229 -0.440103,0.28385 -0.229167,0.10156 -0.497396,0.10156 -0.520833,0 -0.828125,-0.40104 -0.304687,-0.40104 -0.304687,-1.11198 0,-0.36979 0.104167,-0.65885 0.106771,-0.28906 0.286458,-0.49219 0.177083,-0.19792 0.411458,-0.30208 0.236979,-0.10417 0.489583,-0.10417 0.229167,0 0.40625,0.0495 0.177083,0.0469 0.372395,0.14844 v -1.26042 h 0.489583 z m -0.489583,-0.71614 v -1.66927 q -0.197916,-0.0885 -0.354166,-0.1224 -0.15625,-0.0339 -0.341146,-0.0339 -0.411458,0 -0.640624,0.28646 -0.229167,0.28645 -0.229167,0.81249 0,0.51823 0.177083,0.78907 0.177084,0.26823 0.567708,0.26823 0.208334,0 0.421875,-0.0911 0.213542,-0.0937 0.398437,-0.23958 z"
     id="text16"
     style="font-size:5.33333px;-inkscape-font-specification:'sans-serif, Normal';letter-spacing:0px;fill:#280b0b"
     aria-label="Hold" />
</svg>
